<mxfile host="app.diagrams.net" modified="2022-04-26T17:21:33.745Z" agent="5.0 (Macintosh; Intel Mac OS X 10_15_7) AppleWebKit/605.1.15 (KHTML, like Gecko) Version/15.2 Safari/605.1.15" etag="s_QtzeScxSU_wR4aRPkr" version="17.4.6" type="github">
  <diagram id="ijXJe9TySJMEFvtljuBc" name="Page-1">
    <mxGraphModel dx="965" dy="2171" grid="1" gridSize="10" guides="1" tooltips="1" connect="1" arrows="1" fold="1" page="1" pageScale="1" pageWidth="827" pageHeight="1169" math="0" shadow="0">
      <root>
        <mxCell id="0" />
        <mxCell id="1" parent="0" />
        <mxCell id="3kW73yYaPfgqeRwCE7bC-1" value="SPLASH SCREEN" style="rounded=0;whiteSpace=wrap;html=1;" vertex="1" parent="1">
          <mxGeometry x="320" y="80" width="160" height="80" as="geometry" />
        </mxCell>
        <mxCell id="3kW73yYaPfgqeRwCE7bC-2" value="" style="endArrow=classic;html=1;rounded=0;" edge="1" parent="1">
          <mxGeometry width="50" height="50" relative="1" as="geometry">
            <mxPoint x="480" y="120" as="sourcePoint" />
            <mxPoint x="560" y="120" as="targetPoint" />
          </mxGeometry>
        </mxCell>
        <mxCell id="3kW73yYaPfgqeRwCE7bC-3" value="Inherited Widget" style="rounded=1;whiteSpace=wrap;html=1;" vertex="1" parent="1">
          <mxGeometry x="560" y="90" width="120" height="60" as="geometry" />
        </mxCell>
        <mxCell id="3kW73yYaPfgqeRwCE7bC-6" value="" style="edgeStyle=orthogonalEdgeStyle;rounded=0;orthogonalLoop=1;jettySize=auto;html=1;" edge="1" parent="1" source="3kW73yYaPfgqeRwCE7bC-4" target="3kW73yYaPfgqeRwCE7bC-3">
          <mxGeometry relative="1" as="geometry" />
        </mxCell>
        <mxCell id="3kW73yYaPfgqeRwCE7bC-8" value="" style="edgeStyle=orthogonalEdgeStyle;rounded=0;orthogonalLoop=1;jettySize=auto;html=1;" edge="1" parent="1" source="3kW73yYaPfgqeRwCE7bC-4" target="3kW73yYaPfgqeRwCE7bC-7">
          <mxGeometry relative="1" as="geometry" />
        </mxCell>
        <mxCell id="3kW73yYaPfgqeRwCE7bC-4" value="Bloc for init dependencies(Database,Networketc. etc..)" style="rounded=0;whiteSpace=wrap;html=1;" vertex="1" parent="1">
          <mxGeometry x="750" y="90" width="270" height="60" as="geometry" />
        </mxCell>
        <mxCell id="3kW73yYaPfgqeRwCE7bC-5" value="" style="endArrow=classic;html=1;rounded=0;entryX=0;entryY=0.5;entryDx=0;entryDy=0;" edge="1" parent="1" source="3kW73yYaPfgqeRwCE7bC-3" target="3kW73yYaPfgqeRwCE7bC-4">
          <mxGeometry width="50" height="50" relative="1" as="geometry">
            <mxPoint x="680" y="120" as="sourcePoint" />
            <mxPoint x="730" y="70" as="targetPoint" />
            <Array as="points" />
          </mxGeometry>
        </mxCell>
        <mxCell id="3kW73yYaPfgqeRwCE7bC-7" value="" style="whiteSpace=wrap;html=1;rounded=0;" vertex="1" parent="1">
          <mxGeometry x="1175" y="-60" width="195" height="360" as="geometry" />
        </mxCell>
      </root>
    </mxGraphModel>
  </diagram>
</mxfile>
